
        <svg  id="eli" xmlns="http://www.w3.org/2000/svg" xmlns:xlink="http://www.w3.org/1999/xlink" width="100" height="120"
            version="1.1" x="0px" y="0px" viewBox="0 0 100 125" enable-background="new 0 0 100 100" fill="#d30186"
            xml:space="preserve">
            <path
                d="M56.975,7.161c0,0,2.818,1.058,3.172,1.762c0.353,0.705,0.705,2.115,0,2.82c-0.705,0.705-1.058,1.058-1.058,2.468  c0,1.409,1.058,2.467,1.058,2.467s2.468-6.698,3.878-7.403c1.41-0.705,2.468-1.762,3.878-1.057c1.409,0.705,6.345,3.877,6.345,3.877  s-2.82-0.705-4.23-1.41C68.606,9.98,67.55,8.57,66.14,9.276c-1.41,0.705-2.115,1.41-3.173,3.172  c-0.924,1.542-1.764,4.23-1.764,4.936s0.354,1.763,0.354,1.763s1.058,1.41,1.058,3.172s0,2.468-0.353,3.878  c-0.353,1.41-1.763,3.172-2.115,4.583c-0.354,1.41-1.058,3.525-0.705,4.583c0.352,1.058,1.41,3.173,2.115,3.525  c0.705,0.353,3.525,1.058,4.23,0.353c0.705-0.705,3.524-3.173,4.582-3.173s4.23,0.354,4.583-0.705  c0.353-1.058,0.353-2.82,1.058-3.524c0.705-0.706,1.763-1.763,1.41-3.526c-0.353-1.762,1.059-2.114,1.763-2.82  c0.705-0.705-0.704-2.115,0.353-2.82c1.057-0.705,3.525-1.41,3.877-2.82c0.353-1.41,1.763-2.468,0-3.173s-5.992-4.583-7.755-5.993  c-1.763-1.41-5.993-4.583-9.165-5.288C63.319,4.692,60.146,5.045,56.975,7.161z" />
            <path
                d="M58.031,28.665c0,1.057,1.058,2.819,1.058,2.819s1.41-2.819,2.114-4.935c0.706-2.115-0.352-6.345-1.057-7.755  c-0.705-1.411-1.762-2.468-2.115-3.526c-0.353-1.057,0.354-3.877,1.058-4.23c0.704-0.352,0.353-0.705-0.353-1.41  c-0.705-0.705-4.23-3.172-5.992-3.172c-1.764,0-3.878,1.763-5.641,1.763c-1.763,0-5.289-0.705-7.05-0.353  c-1.763,0.353-3.173,2.82-3.173,2.115c0-0.705,1.763-2.115,1.763-2.115s0,0-1.763-0.705c-1.762-0.706-7.403-0.706-10.223,0.705  c-2.82,1.411-7.755,7.756-9.166,10.223c-1.409,2.467-3.172,6.698-3.172,7.051c0,0.352,1.058,0.352,2.82,0.705  c1.762,0.353,1.057,1.057,1.41,2.467c0.353,1.411,2.115,1.411,3.173,1.763c1.057,0.352,0.705,0.705,1.057,1.41  c0.353,0.706,2.821,0.354,4.936,0.706s1.41,3.525,1.762,4.23c0.326,0.651,2.444-0.186,3.601,0.237l1.334,1.525  c0,0,0.706,2.115,1.763,2.115s2.82,1.058,3.173-0.353c0.353-1.41,2.114-3.172,1.41-4.935c-0.705-1.763-1.41-2.468-1.763-3.877  c-0.353-1.41-0.705-3.173-1.41-3.878c-0.706-0.705-1.41-2.467-1.41-4.229c0-1.763,1.41-3.173,1.41-3.525s-0.353-2.468-1.41-3.525  c-1.057-1.058-1.763-1.762-3.173-2.467c-1.41-0.705-3.173-1.411-5.288-0.353c-2.115,1.058-4.23,2.467-5.64,3.877  c-1.41,1.411-3.878,4.583-3.878,5.994s1.41,2.115,2.116,2.82c0.706,0.705,1.41,1.057,2.467,1.057c1.058,0,0.705,1.058,1.41,1.763  c0.706,0.705,1.763,0.353,3.526,1.058c1.762,0.705,1.41,2.115,1.762,3.524c0.142,0.566,0.568,1.013,1.027,1.353  c-0.917-0.137-0.833-0.532-1.379-1.352c-0.705-1.058-0.353-2.115-1.41-2.821c-1.058-0.705-3.173,0.353-3.878-0.352  c-0.705-0.705-0.353-1.058-1.41-1.763c-1.057-0.705-2.115-0.705-2.467-1.058c-0.353-0.353-0.353-1.057-1.41-1.762  c-1.058-0.705-2.115-1.409-2.115-2.115s1.762-2.468,2.468-3.878c0.705-1.41,2.82-3.877,5.64-5.993  c2.82-2.115,4.23-2.115,6.698-2.115s4.23,1.763,5.64,3.525c1.411,1.763,1.763,3.173,1.763,3.173s0.353-1.057,0.353-2.115  c0-1.058-1.057-2.467-1.057-2.467s1.057,0.706,1.763,2.467c0.705,1.763-0.353,2.821-1.41,4.231c-1.058,1.41-1.411,2.114-1.411,3.525  c0,1.41,1.058,1.762,1.763,3.172c0.706,1.41,1.411,3.878,1.763,4.583c0.353,0.706,0-1.762-0.353-3.173  c-0.353-1.41-1.411-2.82-2.115-3.524c-0.706-0.705-0.001-1.763,0.704-1.763c0.706,0,1.056,1.41,1.409,2.467  c0.353,1.058,1.055,2.468,1.407,3.878c0.352,1.41,0.347,2.467,0.347,3.877c0,1.41-0.716,4.583-1.068,4.936  c-0.353,0.352-0.728,1.762-0.375,2.115s2.776,2.468,2.776,2.468s2.554,4.936,2.906,7.051c0.353,2.115-0.708,4.935-1.06,7.756  c-0.353,2.818,1.406,11.985,1.758,14.452c0.352,2.468-0.009,11.985-0.009,13.396s-1.075,3.173-1.779,4.23  c-0.705,1.058-2.151,2.469-0.741,4.231c1.41,1.762,3.102,1.057,4.864-1.059c1.763-2.115,2.326-8.108,2.68-9.519  C52.106,81.895,52,77.664,52,75.196s0-7.402,0-9.87s1.782-10.929,2.486-13.748c0.705-2.82,2.84-9.871,3.898-11.634  c1.057-1.762,1.408-2.82,0.704-3.524c-0.704-0.706-1.058-1.058-0.704-2.821c0.352-1.762-0.706-3.173-1.059-4.935  c-0.352-1.764,0.705-3.525,1.059-4.583c0.352-1.058,0.352-2.116,1.057-1.411c0.705,0.706,0.352,1.763-0.353,2.468  C58.385,25.844,58.031,27.606,58.031,28.665z" />
            <path
                d="M28.067,35.714c0,0,1.41,1.763,2.82,1.763s2.115,0.352,2.468,1.057c0.352,0.705,1.41,2.82,2.82,2.82  c1.41,0,3.525-0.352,5.287,1.41c1.763,1.762,2.115,3.172,2.468,4.583c0.353,1.411,0.705,2.468,0.705,3.877  c0,1.41-0.705,4.231-0.705,6.699c0,2.466-0.171,7.049,0.535,9.165C45.17,69.204,45,73.434,45,74.491s0,8.813,0,8.813  s0.522,3.878-0.534,4.231c-1.058,0.352-1.854,0.704-3.617,0.704c-1.762,0-3.042,0-3.747-0.704c-0.704-0.706-3.308-1.339-2.956-2.396  c0.353-1.057,1.636-1.964,2.694-2.669c1.057-0.705,1.084-1.985,1.438-3.748c0.352-1.763,0.359-5.994,0.359-7.403  s-1.054-3.524-1.759-4.935c-0.706-1.411-3.171-5.642-3.876-8.108c-0.705-2.468-0.352-6.697-0.352-8.107s0.353-3.878-0.705-5.993  C30.887,42.06,27.362,41.355,28.067,35.714z" />
            <path
                d="M69.195,37.975c0,0-0.589-0.146-1.646,0.912c-1.058,1.058-2.115,2.116-2.82,1.763c-0.705-0.353-3.173-0.705-3.526-1.057  c-0.352-0.354-0.704-0.706-0.704-0.706s-0.706,0-1.058,1.058c-0.353,1.058-1.41,3.173-1.763,3.877  c-0.353,0.705-1.058,5.288-1.41,6.698c-0.353,1.411-1.282,2.821-1.634,4.583C54.282,56.866,53,61.096,53,62.152  c0,1.059,0,4.584,0,4.584v7.402v6.698c0,0-0.128,1.763-0.48,3.172c-0.353,1.41-0.24,3.526-0.24,3.526s1.735,0.005,2.523,0  c3.396-0.022,6.373-1.21,6.373-1.21s1.488,0,0.6-1.779c-0.316-0.63-2.315-3.096-2.668-4.152c-0.352-1.059,0-4.579,0-5.637  c0-1.057,1.133-4.281,1.485-5.34c0.353-1.057,1.779-3.335,1.779-4.745c0-1.108-0.499-4.042,0.298-5.637  c0.593-1.186,1.669-2.743,2.373-4.152c0.706-1.41,1.337-2.952,1.337-2.952s-0.24,0.704,0.465,1.057  c0.705,0.354,2.467,2.115,2.819,3.526c0.353,1.41,1.058,1.057,0,2.115c-1.058,1.057-1.41,2.113-0.705,3.171s1.058,1.763,1.058,1.763  s1.058-1.763,1.41-2.467c0.353-0.706,0.353-2.115,0-2.467c-0.353-0.354-0.353-2.115-1.41-3.173  c-1.058-1.059-2.819-3.174-3.172-4.231c-0.353-1.057,0.979-1.856,1.165-3.165C68.306,45.984,70.086,43.908,69.195,37.975z" />
         <!-- <text x="0" y="110" fill="#35b9be" font-size="14px" font-weight="bolder" font-family="cursive">SAY HELLO</text> -->
            </svg>